<?xml version="1.0" encoding="UTF-8" standalone="no"?>
<!DOCTYPE svg PUBLIC "-//W3C//DTD SVG 1.1//EN" "http://www.w3.org/Graphics/SVG/1.1/DTD/svg11.dtd">
<svg width="100%" height="100%" viewBox="0 0 2524 2524" version="1.1" xmlns="http://www.w3.org/2000/svg" xmlns:xlink="http://www.w3.org/1999/xlink" xml:space="preserve" xmlns:serif="http://www.serif.com/" style="fill-rule:evenodd;clip-rule:evenodd;stroke-linejoin:round;stroke-miterlimit:2;">
    <g transform="matrix(1.33333,0,0,1.33333,-1076.58,-391.543)">
        <g id="Logo">
            <g transform="matrix(1,0,0,1,213.437,-218.343)">
                <rect x="594" y="512" width="1893" height="1893"/>
            </g>
            <g transform="matrix(21.7327,0,0,21.7327,-21467.8,-22854.5)">
                <g transform="matrix(50,0,0,50,1038.79,1121.01)">
                    <path d="M1.003,0.163C0.96,0.163 0.936,0.134 0.93,0.077C0.928,0.058 0.927,0.038 0.927,0.019C0.927,-0.024 0.933,-0.069 0.946,-0.117C0.958,-0.165 0.974,-0.214 0.995,-0.265C1.015,-0.316 1.038,-0.367 1.064,-0.418C1.089,-0.469 1.115,-0.519 1.142,-0.568C1.147,-0.575 1.149,-0.582 1.149,-0.587C1.149,-0.592 1.147,-0.594 1.144,-0.594C1.131,-0.594 1.1,-0.572 1.051,-0.529C1.024,-0.506 0.999,-0.481 0.976,-0.455C0.953,-0.428 0.932,-0.403 0.913,-0.38C0.888,-0.347 0.866,-0.32 0.849,-0.297C0.831,-0.274 0.817,-0.255 0.808,-0.24C0.796,-0.222 0.782,-0.199 0.765,-0.17C0.748,-0.14 0.728,-0.106 0.705,-0.067C0.704,-0.066 0.695,-0.046 0.678,-0.005C0.667,0.022 0.657,0.036 0.65,0.036C0.639,0.035 0.628,0.03 0.62,0.023C0.611,0.015 0.607,0.006 0.608,-0.003C0.611,-0.032 0.62,-0.069 0.635,-0.114C0.65,-0.159 0.67,-0.213 0.697,-0.276C0.747,-0.396 0.772,-0.462 0.772,-0.474C0.772,-0.483 0.765,-0.487 0.752,-0.487C0.703,-0.487 0.623,-0.421 0.511,-0.288C0.4,-0.155 0.339,-0.059 0.329,0.002C0.328,0.011 0.322,0.019 0.313,0.025C0.304,0.031 0.294,0.034 0.284,0.034C0.273,0.034 0.268,0.03 0.268,0.023C0.268,-0.019 0.301,-0.108 0.366,-0.244C0.415,-0.344 0.443,-0.404 0.452,-0.425C0.465,-0.458 0.476,-0.488 0.484,-0.515C0.492,-0.542 0.496,-0.563 0.496,-0.58C0.496,-0.599 0.491,-0.612 0.482,-0.617C0.473,-0.622 0.457,-0.625 0.436,-0.625C0.37,-0.625 0.293,-0.604 0.204,-0.563C0.177,-0.55 0.152,-0.536 0.129,-0.519C0.106,-0.502 0.084,-0.483 0.063,-0.462C0.019,-0.416 -0.003,-0.374 -0.003,-0.337C-0.003,-0.324 -0.001,-0.313 0.002,-0.303C0.005,-0.292 0.012,-0.283 0.022,-0.275C0.03,-0.268 0.042,-0.263 0.058,-0.26C0.073,-0.256 0.09,-0.254 0.109,-0.254C0.138,-0.254 0.168,-0.258 0.199,-0.266C0.2,-0.267 0.202,-0.267 0.205,-0.267C0.208,-0.267 0.209,-0.266 0.209,-0.264C0.209,-0.259 0.204,-0.253 0.193,-0.248C0.182,-0.242 0.169,-0.237 0.153,-0.233C0.136,-0.229 0.119,-0.227 0.101,-0.227C0.067,-0.227 0.035,-0.233 0.005,-0.244C-0.03,-0.257 -0.047,-0.283 -0.047,-0.322C-0.047,-0.352 -0.037,-0.384 -0.018,-0.417C-0.001,-0.446 0.028,-0.477 0.069,-0.509C0.092,-0.527 0.121,-0.545 0.154,-0.563C0.187,-0.58 0.222,-0.596 0.259,-0.61C0.296,-0.624 0.332,-0.635 0.369,-0.644C0.405,-0.652 0.438,-0.656 0.468,-0.656C0.525,-0.656 0.554,-0.635 0.554,-0.592C0.554,-0.571 0.546,-0.538 0.529,-0.495C0.512,-0.452 0.489,-0.399 0.46,-0.338C0.439,-0.295 0.419,-0.252 0.4,-0.21C0.381,-0.167 0.36,-0.124 0.339,-0.081C0.34,-0.08 0.374,-0.13 0.443,-0.233C0.46,-0.258 0.481,-0.286 0.506,-0.315C0.53,-0.343 0.558,-0.374 0.591,-0.405C0.65,-0.462 0.696,-0.5 0.727,-0.517C0.745,-0.527 0.763,-0.532 0.781,-0.532C0.808,-0.532 0.822,-0.518 0.822,-0.49C0.822,-0.48 0.821,-0.47 0.818,-0.46C0.801,-0.419 0.782,-0.37 0.759,-0.311C0.736,-0.252 0.71,-0.183 0.681,-0.105C0.68,-0.101 0.679,-0.098 0.679,-0.097C0.679,-0.096 0.679,-0.096 0.68,-0.096C0.683,-0.096 0.709,-0.134 0.758,-0.211C0.785,-0.255 0.809,-0.292 0.829,-0.321C0.848,-0.349 0.864,-0.371 0.875,-0.384C0.968,-0.499 1.043,-0.578 1.102,-0.621C1.126,-0.639 1.156,-0.648 1.191,-0.648C1.221,-0.648 1.236,-0.639 1.236,-0.62C1.236,-0.606 1.227,-0.588 1.21,-0.567C1.147,-0.487 1.09,-0.379 1.041,-0.243C1.018,-0.18 1,-0.125 0.988,-0.08C0.974,-0.034 0.968,0.008 0.968,0.047C0.968,0.082 0.971,0.105 0.979,0.117C0.986,0.129 0.996,0.135 1.009,0.135C1.018,0.135 1.029,0.134 1.04,0.131C1.051,0.128 1.063,0.124 1.076,0.119C1.079,0.118 1.081,0.118 1.083,0.118C1.084,0.117 1.086,0.117 1.087,0.117C1.09,0.117 1.092,0.118 1.092,0.12C1.092,0.127 1.082,0.135 1.063,0.145C1.042,0.157 1.022,0.163 1.003,0.163Z" style="fill:white;fill-rule:nonzero;stroke:white;stroke-width:0.06px;"/>
                </g>
            </g>
        </g>
    </g>
</svg>
